<?xml version="1.0" encoding="UTF-8"?>
<svg width="256px" height="256px" viewBox="0 0 256 256" version="1.1" xmlns="http://www.w3.org/2000/svg">
    <g>
        <path d="M128,0 C198.692448,0 256,57.307552 256,128 C256,198.692448 198.692448,256 128,256 C57.307552,256 0,198.692448 0,128 C0,57.307552 57.307552,0 128,0 Z" fill="#8247E5"/>
        <path d="M186.475,94.193 C183.989,92.768 180.858,92.768 178.228,94.193 L146.768,112.597 L124.996,124.192 L93.536,142.596 C91.05,144.021 87.919,144.021 85.289,142.596 L59.944,128.001 C57.458,126.576 55.829,123.868 55.829,120.873 L55.829,92.111 C55.829,89.116 57.315,86.408 59.944,84.983 L85.003,70.53 C87.489,69.105 90.62,69.105 93.25,70.53 L118.309,84.983 C120.795,86.408 122.424,89.116 122.424,92.111 L122.424,110.515 L144.196,98.92 L144.196,80.373 C144.196,77.378 142.71,74.67 140.081,73.245 L93.536,46.908 C91.05,45.483 87.919,45.483 85.289,46.908 L38.172,73.245 C35.543,74.67 34.057,77.378 34.057,80.373 L34.057,132.611 C34.057,135.606 35.543,138.314 38.172,139.739 L85.289,166.076 C87.775,167.501 90.906,167.501 93.536,166.076 L124.996,147.814 L146.768,136.077 L178.228,117.815 C180.714,116.39 183.845,116.39 186.475,117.815 L211.534,132.268 C214.02,133.693 215.649,136.401 215.649,139.396 L215.649,168.158 C215.649,171.153 214.163,173.861 211.534,175.286 L186.475,189.881 C183.989,191.306 180.858,191.306 178.228,189.881 L153.169,175.428 C150.683,174.003 149.054,171.295 149.054,168.3 L149.054,149.896 L127.282,161.491 L127.282,180.038 C127.282,183.033 128.768,185.741 131.397,187.166 L178.514,213.503 C181,214.928 184.131,214.928 186.761,213.503 L233.878,187.166 C236.364,185.741 237.993,183.033 237.993,180.038 L237.993,127.8 C237.993,124.805 236.507,122.097 233.878,120.672 L186.475,94.193 Z" fill="#FFFFFF"/>
    </g>
</svg> 